<svg id="visual" viewBox="0 0 960 540" width="960" height="540" xmlns="http://www.w3.org/2000/svg" xmlns:xlink="http://www.w3.org/1999/xlink" version="1.1"><path d="M0 458L26.7 455C53.3 452 106.7 446 160 436.7C213.3 427.3 266.7 414.7 320 405.8C373.3 397 426.7 392 480 396.3C533.3 400.7 586.7 414.3 640 428.8C693.3 443.3 746.7 458.7 800 460.5C853.3 462.3 906.7 450.7 933.3 444.8L960 439L960 541L933.3 541C906.7 541 853.3 541 800 541C746.7 541 693.3 541 640 541C586.7 541 533.3 541 480 541C426.7 541 373.3 541 320 541C266.7 541 213.3 541 160 541C106.7 541 53.3 541 26.7 541L0 541Z" fill="#0066FF" stroke-linecap="round" stroke-linejoin="miter"></path></svg>