<svg id="visual" viewBox="0 0 960 540" width="960" height="540" xmlns="http://www.w3.org/2000/svg" xmlns:xlink="http://www.w3.org/1999/xlink" version="1.1"><path d="M0 50L87 82L175 87L262 93L349 33L436 93L524 87L611 33L698 55L785 50L873 82L960 60L960 0L873 0L785 0L698 0L611 0L524 0L436 0L349 0L262 0L175 0L87 0L0 0Z" fill="#ffffff"></path><path d="M0 125L87 190L175 217L262 190L349 87L436 201L524 195L611 93L698 147L785 179L873 174L960 217L960 58L873 80L785 48L698 53L611 31L524 85L436 91L349 31L262 91L175 85L87 80L0 48Z" fill="#c6c7cc"></path><path d="M0 233L87 330L175 390L262 352L349 287L436 336L524 347L611 244L698 320L785 352L873 260L960 411L960 215L873 172L785 177L698 145L611 91L524 193L436 199L349 85L262 188L175 215L87 188L0 123Z" fill="#8f919b"></path><path d="M0 298L87 406L175 433L262 411L349 330L436 368L524 438L611 293L698 395L785 455L873 352L960 460L960 409L873 258L785 350L698 318L611 242L524 345L436 334L349 285L262 350L175 388L87 328L0 231Z" fill="#5c5f6d"></path><path d="M0 541L87 541L175 541L262 541L349 541L436 541L524 541L611 541L698 541L785 541L873 541L960 541L960 458L873 350L785 453L698 393L611 291L524 436L436 366L349 328L262 409L175 431L87 404L0 296Z" fill="#2d3142"></path></svg>