<svg id="visual" viewBox="0 0 960 540" width="960" height="540" xmlns="http://www.w3.org/2000/svg" xmlns:xlink="http://www.w3.org/1999/xlink" version="1.1"><path d="M0 109L87 60L175 71L262 87L349 39L436 71L524 114L611 50L698 50L785 82L873 39L960 39L960 0L873 0L785 0L698 0L611 0L524 0L436 0L349 0L262 0L175 0L87 0L0 0Z" fill="#2d3142"></path><path d="M0 179L87 114L175 131L262 125L349 98L436 109L524 179L611 93L698 120L785 158L873 109L960 131L960 37L873 37L785 80L698 48L611 48L524 112L436 69L349 37L262 85L175 69L87 58L0 107Z" fill="#5c5f6d"></path><path d="M0 384L87 201L175 379L262 309L349 282L436 309L524 282L611 276L698 325L785 336L873 217L960 249L960 129L873 107L785 156L698 118L611 91L524 177L436 107L349 96L262 123L175 129L87 112L0 177Z" fill="#8f919b"></path><path d="M0 487L87 449L175 482L262 428L349 395L436 460L524 433L611 476L698 428L785 417L873 422L960 444L960 247L873 215L785 334L698 323L611 274L524 280L436 307L349 280L262 307L175 377L87 199L0 382Z" fill="#c6c7cc"></path><path d="M0 541L87 541L175 541L262 541L349 541L436 541L524 541L611 541L698 541L785 541L873 541L960 541L960 442L873 420L785 415L698 426L611 474L524 431L436 458L349 393L262 426L175 480L87 447L0 485Z" fill="#ffffff"></path></svg>