<svg id="visual" viewBox="0 0 960 540" width="960" height="540" xmlns="http://www.w3.org/2000/svg" xmlns:xlink="http://www.w3.org/1999/xlink" version="1.1"><rect x="0" y="0" width="960" height="540" fill="#E4C2C6"></rect><path d="M0 364L22.8 370.3C45.7 376.7 91.3 389.3 137 391.8C182.7 394.3 228.3 386.7 274 379.2C319.7 371.7 365.3 364.3 411.2 366.7C457 369 503 381 548.8 383.3C594.7 385.7 640.3 378.3 686 380.2C731.7 382 777.3 393 823 386.3C868.7 379.7 914.3 355.3 937.2 343.2L960 331L960 541L937.2 541C914.3 541 868.7 541 823 541C777.3 541 731.7 541 686 541C640.3 541 594.7 541 548.8 541C503 541 457 541 411.2 541C365.3 541 319.7 541 274 541C228.3 541 182.7 541 137 541C91.3 541 45.7 541 22.8 541L0 541Z" fill="#cd9fcc"></path><path d="M0 355L22.8 355.8C45.7 356.7 91.3 358.3 137 367.7C182.7 377 228.3 394 274 402.8C319.7 411.7 365.3 412.3 411.2 403.3C457 394.3 503 375.7 548.8 374.3C594.7 373 640.3 389 686 401.5C731.7 414 777.3 423 823 424.5C868.7 426 914.3 420 937.2 417L960 414L960 541L937.2 541C914.3 541 868.7 541 823 541C777.3 541 731.7 541 686 541C640.3 541 594.7 541 548.8 541C503 541 457 541 411.2 541C365.3 541 319.7 541 274 541C228.3 541 182.7 541 137 541C91.3 541 45.7 541 22.8 541L0 541Z" fill="#a173aa"></path><path d="M0 454L22.8 452.3C45.7 450.7 91.3 447.3 137 438.2C182.7 429 228.3 414 274 408C319.7 402 365.3 405 411.2 406.3C457 407.7 503 407.3 548.8 410.3C594.7 413.3 640.3 419.7 686 427.2C731.7 434.7 777.3 443.3 823 445.7C868.7 448 914.3 444 937.2 442L960 440L960 541L937.2 541C914.3 541 868.7 541 823 541C777.3 541 731.7 541 686 541C640.3 541 594.7 541 548.8 541C503 541 457 541 411.2 541C365.3 541 319.7 541 274 541C228.3 541 182.7 541 137 541C91.3 541 45.7 541 22.8 541L0 541Z" fill="#74498a"></path><path d="M0 435L22.8 442.8C45.7 450.7 91.3 466.3 137 467.2C182.7 468 228.3 454 274 454.5C319.7 455 365.3 470 411.2 477.2C457 484.3 503 483.7 548.8 477.2C594.7 470.7 640.3 458.3 686 457.8C731.7 457.3 777.3 468.7 823 470C868.7 471.3 914.3 462.7 937.2 458.3L960 454L960 541L937.2 541C914.3 541 868.7 541 823 541C777.3 541 731.7 541 686 541C640.3 541 594.7 541 548.8 541C503 541 457 541 411.2 541C365.3 541 319.7 541 274 541C228.3 541 182.7 541 137 541C91.3 541 45.7 541 22.8 541L0 541Z" fill="#45236c"></path><path d="M0 472L22.8 474.2C45.7 476.3 91.3 480.7 137 484.7C182.7 488.7 228.3 492.3 274 490.3C319.7 488.3 365.3 480.7 411.2 483.8C457 487 503 501 548.8 504C594.7 507 640.3 499 686 493.7C731.7 488.3 777.3 485.7 823 489C868.7 492.3 914.3 501.7 937.2 506.3L960 511L960 541L937.2 541C914.3 541 868.7 541 823 541C777.3 541 731.7 541 686 541C640.3 541 594.7 541 548.8 541C503 541 457 541 411.2 541C365.3 541 319.7 541 274 541C228.3 541 182.7 541 137 541C91.3 541 45.7 541 22.8 541L0 541Z" fill="#0a014f"></path></svg>