<svg id="visual" viewBox="0 0 960 540" width="960" height="540" xmlns="http://www.w3.org/2000/svg" xmlns:xlink="http://www.w3.org/1999/xlink" version="1.1"><g stroke-width="1" stroke-linejoin="bevel"><path d="M515.3 279L614 234L550.3 219Z" fill="#0c2435" stroke="#0c2435"></path><path d="M515.3 279L649 331L614 234Z" fill="#00101c" stroke="#00101c"></path><path d="M728.7 170L621 177L614 234Z" fill="#081a28" stroke="#081a28"></path><path d="M614 234L621 177L550.3 219Z" fill="#0c2435" stroke="#0c2435"></path><path d="M515.3 279L554.3 377L649 331Z" fill="#205a7a" stroke="#205a7a"></path><path d="M391.7 278L439.7 353L515.3 279Z" fill="#246688" stroke="#246688"></path><path d="M515.3 279L439.7 353L554.3 377Z" fill="#00101c" stroke="#00101c"></path><path d="M554.3 377L661 427L649 331Z" fill="#246688" stroke="#246688"></path><path d="M501.3 459L661 427L554.3 377Z" fill="#19435d" stroke="#19435d"></path><path d="M393.7 171L391.7 278L515.3 279Z" fill="#15384f" stroke="#15384f"></path><path d="M393.7 171L515.3 279L550.3 219Z" fill="#081a28" stroke="#081a28"></path><path d="M754.7 363L754.7 239L649 331Z" fill="#1d4e6b" stroke="#1d4e6b"></path><path d="M649 331L754.7 239L614 234Z" fill="#246688" stroke="#246688"></path><path d="M754.7 239L728.7 170L614 234Z" fill="#246688" stroke="#246688"></path><path d="M417.7 433L501.3 459L439.7 353Z" fill="#00101c" stroke="#00101c"></path><path d="M439.7 353L501.3 459L554.3 377Z" fill="#205a7a" stroke="#205a7a"></path><path d="M496.3 67L550.3 219L621 177Z" fill="#205a7a" stroke="#205a7a"></path><path d="M433.7 89L393.7 171L550.3 219Z" fill="#0c2435" stroke="#0c2435"></path><path d="M661 427L754.7 363L649 331Z" fill="#15384f" stroke="#15384f"></path><path d="M728.7 170L669 89L621 177Z" fill="#19435d" stroke="#19435d"></path><path d="M669 89L496.3 67L621 177Z" fill="#081a28" stroke="#081a28"></path><path d="M318 328L417.7 433L439.7 353Z" fill="#1d4e6b" stroke="#1d4e6b"></path><path d="M496.3 67L433.7 89L550.3 219Z" fill="#246688" stroke="#246688"></path><path d="M728.7 170L752.7 97L669 89Z" fill="#112e42" stroke="#112e42"></path><path d="M669 89L565.3 0L496.3 67Z" fill="#00101c" stroke="#00101c"></path><path d="M838.3 174L752.7 97L728.7 170Z" fill="#112e42" stroke="#112e42"></path><path d="M328 108L338 161L393.7 171Z" fill="#1d4e6b" stroke="#1d4e6b"></path><path d="M393.7 171L308 262L391.7 278Z" fill="#00101c" stroke="#00101c"></path><path d="M391.7 278L318 328L439.7 353Z" fill="#0c2435" stroke="#0c2435"></path><path d="M308 262L318 328L391.7 278Z" fill="#205a7a" stroke="#205a7a"></path><path d="M754.7 363L828.3 231L754.7 239Z" fill="#205a7a" stroke="#205a7a"></path><path d="M754.7 239L838.3 174L728.7 170Z" fill="#277297" stroke="#277297"></path><path d="M338 161L308 262L393.7 171Z" fill="#15384f" stroke="#15384f"></path><path d="M658 0L565.3 0L669 89Z" fill="#112e42" stroke="#112e42"></path><path d="M496.3 67L439.7 0L433.7 89Z" fill="#19435d" stroke="#19435d"></path><path d="M661 427L772.7 455L754.7 363Z" fill="#246688" stroke="#246688"></path><path d="M754.7 363L887.3 350L828.3 231Z" fill="#205a7a" stroke="#205a7a"></path><path d="M731.7 540L772.7 455L661 427Z" fill="#15384f" stroke="#15384f"></path><path d="M431.7 540L518.3 540L501.3 459Z" fill="#15384f" stroke="#15384f"></path><path d="M501.3 459L637 540L661 427Z" fill="#297ea6" stroke="#297ea6"></path><path d="M431.7 540L501.3 459L417.7 433Z" fill="#081a28" stroke="#081a28"></path><path d="M518.3 540L637 540L501.3 459Z" fill="#297ea6" stroke="#297ea6"></path><path d="M828.3 231L838.3 174L754.7 239Z" fill="#00101c" stroke="#00101c"></path><path d="M771.7 0L658 0L669 89Z" fill="#081a28" stroke="#081a28"></path><path d="M771.7 0L669 89L752.7 97Z" fill="#277297" stroke="#277297"></path><path d="M433.7 89L328 108L393.7 171Z" fill="#0c2435" stroke="#0c2435"></path><path d="M338 161L217.3 180L308 262Z" fill="#15384f" stroke="#15384f"></path><path d="M439.7 0L328 108L433.7 89Z" fill="#205a7a" stroke="#205a7a"></path><path d="M565.3 0L439.7 0L496.3 67Z" fill="#0c2435" stroke="#0c2435"></path><path d="M341 540L431.7 540L417.7 433Z" fill="#00101c" stroke="#00101c"></path><path d="M637 540L731.7 540L661 427Z" fill="#205a7a" stroke="#205a7a"></path><path d="M229.3 389L295 423L318 328Z" fill="#15384f" stroke="#15384f"></path><path d="M318 328L295 423L417.7 433Z" fill="#297ea6" stroke="#297ea6"></path><path d="M873.3 457L887.3 350L754.7 363Z" fill="#1d4e6b" stroke="#1d4e6b"></path><path d="M828.3 231L960 178L838.3 174Z" fill="#15384f" stroke="#15384f"></path><path d="M873.3 457L754.7 363L772.7 455Z" fill="#00101c" stroke="#00101c"></path><path d="M856.3 0L771.7 0L752.7 97Z" fill="#277297" stroke="#277297"></path><path d="M295 423L341 540L417.7 433Z" fill="#297ea6" stroke="#297ea6"></path><path d="M870.3 540L873.3 457L772.7 455Z" fill="#0c2435" stroke="#0c2435"></path><path d="M195.3 255L229.3 389L318 328Z" fill="#0c2435" stroke="#0c2435"></path><path d="M295 423L248.3 486L341 540Z" fill="#297ea6" stroke="#297ea6"></path><path d="M195.3 255L318 328L308 262Z" fill="#297ea6" stroke="#297ea6"></path><path d="M960 178L884.3 89L838.3 174Z" fill="#0c2435" stroke="#0c2435"></path><path d="M838.3 174L884.3 89L752.7 97Z" fill="#112e42" stroke="#112e42"></path><path d="M215.3 87L217.3 180L328 108Z" fill="#246688" stroke="#246688"></path><path d="M328 108L217.3 180L338 161Z" fill="#205a7a" stroke="#205a7a"></path><path d="M217.3 180L195.3 255L308 262Z" fill="#205a7a" stroke="#205a7a"></path><path d="M189.3 540L248.3 486L125.7 476Z" fill="#081a28" stroke="#081a28"></path><path d="M229.3 389L248.3 486L295 423Z" fill="#205a7a" stroke="#205a7a"></path><path d="M960 376L960 298L887.3 350Z" fill="#112e42" stroke="#112e42"></path><path d="M887.3 350L960 298L828.3 231Z" fill="#246688" stroke="#246688"></path><path d="M439.7 0L288 0L328 108Z" fill="#205a7a" stroke="#205a7a"></path><path d="M960 0L856.3 0L884.3 89Z" fill="#0c2435" stroke="#0c2435"></path><path d="M884.3 89L856.3 0L752.7 97Z" fill="#15384f" stroke="#15384f"></path><path d="M960 298L960 178L828.3 231Z" fill="#1d4e6b" stroke="#1d4e6b"></path><path d="M217.3 180L102.7 164L195.3 255Z" fill="#205a7a" stroke="#205a7a"></path><path d="M288 0L215.3 87L328 108Z" fill="#19435d" stroke="#19435d"></path><path d="M731.7 540L870.3 540L772.7 455Z" fill="#1d4e6b" stroke="#1d4e6b"></path><path d="M960 421L960 376L887.3 350Z" fill="#081a28" stroke="#081a28"></path><path d="M960 421L887.3 350L873.3 457Z" fill="#081a28" stroke="#081a28"></path><path d="M960 540L960 421L873.3 457Z" fill="#00101c" stroke="#00101c"></path><path d="M960 178L960 120L884.3 89Z" fill="#0c2435" stroke="#0c2435"></path><path d="M288 0L224.3 0L215.3 87Z" fill="#205a7a" stroke="#205a7a"></path><path d="M215.3 87L102.7 164L217.3 180Z" fill="#15384f" stroke="#15384f"></path><path d="M125.7 476L248.3 486L229.3 389Z" fill="#0c2435" stroke="#0c2435"></path><path d="M248.3 486L189.3 540L341 540Z" fill="#1d4e6b" stroke="#1d4e6b"></path><path d="M870.3 540L960 540L873.3 457Z" fill="#15384f" stroke="#15384f"></path><path d="M960 120L960 0L884.3 89Z" fill="#205a7a" stroke="#205a7a"></path><path d="M78.7 120L102.7 164L215.3 87Z" fill="#277297" stroke="#277297"></path><path d="M195.3 255L91.7 334L229.3 389Z" fill="#277297" stroke="#277297"></path><path d="M70.7 266L91.7 334L195.3 255Z" fill="#00101c" stroke="#00101c"></path><path d="M91.7 334L125.7 476L229.3 389Z" fill="#205a7a" stroke="#205a7a"></path><path d="M102.7 164L70.7 266L195.3 255Z" fill="#15384f" stroke="#15384f"></path><path d="M0 540L115.7 540L125.7 476Z" fill="#19435d" stroke="#19435d"></path><path d="M68.7 0L78.7 120L215.3 87Z" fill="#277297" stroke="#277297"></path><path d="M0 181L0 270L70.7 266Z" fill="#19435d" stroke="#19435d"></path><path d="M0 413L125.7 476L91.7 334Z" fill="#081a28" stroke="#081a28"></path><path d="M125.7 476L115.7 540L189.3 540Z" fill="#205a7a" stroke="#205a7a"></path><path d="M0 181L70.7 266L102.7 164Z" fill="#00101c" stroke="#00101c"></path><path d="M224.3 0L68.7 0L215.3 87Z" fill="#297ea6" stroke="#297ea6"></path><path d="M0 181L102.7 164L78.7 120Z" fill="#1d4e6b" stroke="#1d4e6b"></path><path d="M70.7 266L0 270L91.7 334Z" fill="#112e42" stroke="#112e42"></path><path d="M0 82L0 181L78.7 120Z" fill="#277297" stroke="#277297"></path><path d="M0 270L0 398L91.7 334Z" fill="#205a7a" stroke="#205a7a"></path><path d="M0 398L0 413L91.7 334Z" fill="#15384f" stroke="#15384f"></path><path d="M68.7 0L0 82L78.7 120Z" fill="#277297" stroke="#277297"></path><path d="M0 413L0 540L125.7 476Z" fill="#246688" stroke="#246688"></path><path d="M68.7 0L0 0L0 82Z" fill="#19435d" stroke="#19435d"></path></g></svg>